<svg width="104" height="64" viewBox="0 0 104 64" fill="none" xmlns="http://www.w3.org/2000/svg">
<path d="M94.8571 63.473C100.134 61.8109 104 56.4085 104 50C104 42.2679 98.3717 36 91.4286 36L91.2612 36.0013C90.1127 26.9548 83.2059 20 74.8571 20C72.8276 20 70.8834 20.4111 69.0859 21.1634C66.5714 9.03939 56.8058 0 45.1429 0C31.5725 0 20.5714 12.2376 20.5714 27.3333C20.5714 28.4925 20.6362 29.6351 20.7623 30.7565C18.9526 29.8408 16.9554 29.3333 14.8571 29.3333C6.65179 29.3333 0 37.0938 0 46.6667C0 55.3327 5.45145 62.5137 12.5714 63.7962V64H94.8571V63.473Z" fill="#DEEFFF"/>
<path fill-rule="evenodd" clip-rule="evenodd" d="M51.4412 12.9756C50.2196 12.9756 49.0254 13.3404 48.0097 14.0238C46.994 14.7072 46.2024 15.6785 45.7349 16.815C45.2674 17.9515 45.1451 19.202 45.3834 20.4085C45.6217 21.6149 46.21 22.7231 47.0738 23.593C47.9375 24.4628 49.0381 25.0551 50.2362 25.2952C51.4343 25.5351 52.6762 25.412 53.8048 24.9412C54.9334 24.4704 55.8981 23.6733 56.5767 22.6505C57.2554 21.6277 57.6176 20.4252 57.6176 19.1951C57.6176 18.3784 57.4579 17.5696 57.1475 16.815C56.8371 16.0604 56.3822 15.3748 55.8086 14.7973C55.2351 14.2197 54.5542 13.7616 53.8048 13.449C53.0555 13.1365 52.2523 12.9756 51.4412 12.9756ZM48.0888 15.5505C48.8437 14.8431 49.8004 14.3926 50.8235 14.2627V17.8614L48.0888 15.5505ZM46.5 19.1951C46.5 18.239 46.7754 17.3034 47.2929 16.5017L50.5711 19.2718L47.8218 22.5711C46.9727 21.6548 46.5004 20.4484 46.5 19.1951ZM51.4412 24.1707C50.4915 24.1708 49.5623 23.8934 48.7661 23.3723L52.0588 19.4214V14.2627C53.3058 14.4204 54.4462 15.0508 55.2476 16.0255C56.0491 17.0002 56.4515 18.246 56.3728 19.509C56.294 20.772 55.7401 21.9572 54.8238 22.8233C53.9076 23.6895 52.6979 24.1714 51.4412 24.1707Z" fill="#628DB6"/>
<path d="M50.8235 49.6707H52.8529V38.7244H50.8235V49.6707Z" fill="#628DB6"/>
<path d="M54.8824 49.6707H56.9118V34.7439H54.8824V49.6707Z" fill="#628DB6"/>
<path d="M58.9412 49.6707H60.9706V42.7049H58.9412V49.6707Z" fill="#628DB6"/>
<path d="M63 38.7244V49.6707H65.0294V38.7244H63Z" fill="#628DB6"/>
<path d="M59.7794 17.9512C59.7794 17.436 60.1942 17.0183 60.7059 17.0183H73.0588C73.5705 17.0183 73.9853 17.436 73.9853 17.9512C73.9853 18.4665 73.5705 18.8841 73.0588 18.8841H60.7059C60.1942 18.8841 59.7794 18.4665 59.7794 17.9512Z" fill="#628DB6"/>
<path d="M60.7059 22.6159C60.1942 22.6159 59.7794 23.0335 59.7794 23.5488C59.7794 24.064 60.1942 24.4817 60.7059 24.4817H73.0588C73.5705 24.4817 73.9853 24.064 73.9853 23.5488C73.9853 23.0335 73.5705 22.6159 73.0588 22.6159H60.7059Z" fill="#628DB6"/>
<path d="M70.6662 26.6643C71.0042 27.0511 70.9667 27.6406 70.5826 27.9809L62.5599 35.0882L54.9713 31.7269L47.7181 37.9422C47.3284 38.2761 46.7437 38.2287 46.4121 37.8363C46.0805 37.4439 46.1275 36.8551 46.5172 36.5212L54.6547 29.5482L62.2237 32.9009L69.3586 26.58C69.7428 26.2397 70.3282 26.2774 70.6662 26.6643Z" fill="#628DB6"/>
<path fill-rule="evenodd" clip-rule="evenodd" d="M40.3235 12.3537C40.3235 9.9492 42.2592 8 44.6471 8H73.6765C76.0643 8 78 9.9492 78 12.3537V50.9146C78 53.3191 76.0643 55.2683 73.6765 55.2683H73.0588V55.8902C73.0588 57.6077 71.6762 59 69.9706 59H39.0882C37.3827 59 36 57.6077 36 55.8902V15.4634C36 13.7459 37.3827 12.3537 39.0882 12.3537H40.3235ZM44.6471 10.4878H73.6765C74.6998 10.4878 75.5294 11.3232 75.5294 12.3537V50.9146C75.5294 51.9451 74.6998 52.7805 73.6765 52.7805H44.6471C43.6237 52.7805 42.7941 51.9451 42.7941 50.9146V12.3537C42.7941 11.3232 43.6237 10.4878 44.6471 10.4878ZM40.3235 14.8415H39.0882C38.7471 14.8415 38.4706 15.1199 38.4706 15.4634V55.8902C38.4706 56.2337 38.7471 56.5122 39.0882 56.5122H69.9706C70.3117 56.5122 70.5882 56.2337 70.5882 55.8902V55.2683H44.6471C42.2592 55.2683 40.3235 53.3191 40.3235 50.9146V14.8415Z" fill="#628DB6"/>
</svg>
