<svg width="104" height="64" viewBox="0 0 104 64" fill="none" xmlns="http://www.w3.org/2000/svg">
<path d="M94.8571 63.473C100.134 61.8109 104 56.4085 104 50C104 42.2679 98.3717 36 91.4286 36L91.2612 36.0013C90.1127 26.9548 83.2059 20 74.8571 20C72.8276 20 70.8834 20.4111 69.0859 21.1634C66.5714 9.03939 56.8058 0 45.1429 0C31.5725 0 20.5714 12.2376 20.5714 27.3333C20.5714 28.4925 20.6362 29.6351 20.7623 30.7565C18.9526 29.8408 16.9554 29.3333 14.8571 29.3333C6.65179 29.3333 0 37.0938 0 46.6667C0 55.3327 5.45145 62.5137 12.5714 63.7962V64H94.8571V63.473Z" fill="#DEEFFF"/>
<path d="M81.0008 19L82.4138 20.4695C82.5997 20.6626 82.7471 20.8919 82.8476 21.1443C82.9483 21.3967 83 21.6672 83 21.9404C83 22.2136 82.9483 22.4841 82.8476 22.7365C82.7471 22.9889 82.5997 23.2182 82.4138 23.4113L78 28M76.3386 23L81.4012 17.9381C81.7846 17.5545 82 17.0343 82 16.4919C82 15.9495 81.7846 15.4293 81.4012 15.0457L79.9545 13.5989C79.571 13.2154 79.0509 13 78.5085 13C77.9663 13 77.4461 13.2154 77.0626 13.5989L72 18.6595M70 40.5V55.0833C70 55.8568 69.6401 56.5988 68.9994 57.1458C68.3586 57.6928 67.4894 58 66.5833 58H32.4167C31.5105 58 30.6415 57.6928 30.0007 57.1458C29.36 56.5988 29 55.8568 29 55.0833V25.9167C29 25.1431 29.36 24.4012 30.0007 23.8543C30.6415 23.3073 31.5105 23 32.4167 23H49.5M46 28.7485L39.25 37.7485L34.75 33.2485M49.375 34.3735H56.125M46 42.2485L39.25 51.2485L34.75 46.7485M49.375 47.8735H56.125M62.4992 27.3997L61 33L66.9994 31.5996L76 23.1999L71.4997 19L62.4992 27.3997Z" stroke="#628DB6" stroke-width="3" stroke-linecap="round" stroke-linejoin="round"/>
</svg>
