<svg width="104" height="64" viewBox="0 0 104 64" fill="none" xmlns="http://www.w3.org/2000/svg">
<path d="M94.8571 63.473C100.134 61.8109 104 56.4085 104 50C104 42.2679 98.3717 36 91.4286 36L91.2612 36.0013C90.1127 26.9548 83.2059 20 74.8571 20C72.8276 20 70.8834 20.4111 69.0859 21.1634C66.5714 9.03939 56.8058 0 45.1429 0C31.5725 0 20.5714 12.2376 20.5714 27.3333C20.5714 28.4925 20.6362 29.6351 20.7623 30.7565C18.9526 29.8408 16.9554 29.3333 14.8571 29.3333C6.65179 29.3333 0 37.0938 0 46.6667C0 55.3327 5.45145 62.5137 12.5714 63.7962V64H94.8571V63.473Z" fill="#DEEFFF"/>
<path d="M41.9125 31.9107C40.5088 31.9107 39.1367 32.3265 37.9697 33.1055C36.8026 33.8845 35.893 34.9917 35.3559 36.2871C34.8187 37.5824 34.6782 39.0079 34.952 40.383C35.2258 41.7582 35.9017 43.0214 36.8942 44.013C37.8868 45.0043 39.1513 45.6795 40.5279 45.9532C41.9047 46.2267 43.3315 46.0862 44.6284 45.5497C45.925 45.0131 47.0335 44.1044 47.8134 42.9386C48.5931 41.7727 49.0094 40.4021 49.0094 39.0001C49.0071 37.1205 48.2588 35.3185 46.9283 33.9895C45.5978 32.6605 43.7941 31.9129 41.9125 31.9107ZM41.9125 42.3582C41.2476 42.3582 40.5977 42.1612 40.0449 41.7921C39.4921 41.4231 39.0611 40.8987 38.8067 40.2851C38.5523 39.6715 38.4857 38.9963 38.6155 38.3449C38.7451 37.6934 39.0654 37.0951 39.5354 36.6255C40.0055 36.1558 40.6046 35.836 41.2566 35.7065C41.9088 35.5769 42.5847 35.6435 43.1989 35.8976C43.8132 36.1517 44.3381 36.5821 44.7076 37.1343C45.077 37.6867 45.2742 38.3359 45.2742 39.0001C45.2731 39.8903 44.9186 40.7439 44.2885 41.3735C43.6582 42.003 42.8037 42.357 41.9125 42.3582ZM57.3923 37.4268L61.825 33.7812L61.4229 32.567C60.538 29.8982 59.1164 27.4381 57.2455 25.3378L56.3937 24.383L51.017 26.3954L48.2877 24.8214L47.3439 19.1627L46.0899 18.9039C43.3341 18.3355 40.4909 18.3355 37.7351 18.9039L36.4812 19.1627L35.5373 24.8214L32.808 26.3954L27.4313 24.383L26.5795 25.3378C24.7086 27.4381 23.287 29.8982 22.4021 32.567L22 33.7812L26.4327 37.4268V40.5733L22 44.2189L22.4021 45.4331C23.2866 48.102 24.7086 50.562 26.5805 52.6615L27.4313 53.6162L32.808 51.6047L35.5373 53.1787L36.4812 58.8374L37.7351 59.0962C40.4909 59.6645 43.3341 59.6645 46.0899 59.0962L47.3439 58.8374L48.2877 53.1787L51.017 51.6054L56.3937 53.6178L57.2455 52.663C59.1164 50.5627 60.538 48.1025 61.4229 45.4338L61.825 44.2197L57.3923 40.5741V37.4268ZM57.4356 45.4418C56.8757 46.7856 56.1441 48.0514 55.2593 49.2079L50.6766 47.4931L44.8926 50.8267L44.0884 55.6499C42.6437 55.8373 41.1806 55.8373 39.7358 55.6499L38.9316 50.8267L33.1486 47.4931L28.5659 49.2074C27.6811 48.0511 26.9496 46.7854 26.3896 45.4418L30.1681 42.3345V35.6657L26.3894 32.5583C26.9494 31.2145 27.6809 29.9486 28.5657 28.7922L33.1484 30.507L38.9324 27.1732L39.7366 22.3502C41.1813 22.1627 42.6444 22.1627 44.0892 22.3502L44.8934 27.1732L50.6773 30.507L55.26 28.7922C56.1447 29.9487 56.8762 31.2146 57.4363 32.5583L53.6571 35.6657V42.3345L57.4356 45.4418Z" fill="#628DB6"/>
<path d="M45.9688 18.8507H67.725L75.8375 27.4328V59.5224H45.6L45.9688 18.8507Z" fill="#DEEFFF"/>
<path d="M51.1313 46.375H63.5766V41.625H51.1313V46.375Z" fill="#628DB6"/>
<path d="M51.1313 36.375H71.0438V31.625H51.1313V36.375Z" fill="#628DB6"/>
<path fill-rule="evenodd" clip-rule="evenodd" d="M69.5854 14H41.175V64H81V25.4647L69.5854 14ZM76.0219 59H46.1531V19H67.5232L76.0219 27.536V59Z" fill="#628DB6"/>
</svg>
