<svg width="31" height="30" viewBox="0 0 31 30" fill="none" xmlns="http://www.w3.org/2000/svg">
<path fill-rule="evenodd" clip-rule="evenodd" d="M29.8384 2.33055C29.9652 2.20378 30.0658 2.05328 30.1344 1.88764C30.203 1.72201 30.2383 1.54448 30.2383 1.3652C30.2383 1.18592 30.203 1.0084 30.1344 0.842762C30.0658 0.677128 29.9652 0.526629 29.8384 0.399858C29.7117 0.273087 29.5612 0.172528 29.3955 0.10392C29.2299 0.0353121 29.0524 0 28.8731 0C28.6938 0 28.5163 0.0353121 28.3506 0.10392C28.185 0.172528 28.0345 0.273087 27.9077 0.399858L15.2383 13.072L2.56883 0.399858C2.44206 0.273087 2.29156 0.172528 2.12592 0.10392C1.96029 0.0353121 1.78276 1.33575e-09 1.60348 0C1.4242 -1.33575e-09 1.24668 0.0353121 1.08104 0.10392C0.915409 0.172528 0.76491 0.273087 0.638139 0.399858C0.511369 0.526629 0.410809 0.677128 0.342201 0.842762C0.273593 1.0084 0.238281 1.18592 0.238281 1.3652C0.238281 1.54448 0.273593 1.72201 0.342201 1.88764C0.410809 2.05328 0.511369 2.20378 0.638139 2.33055L13.3103 15L0.638139 27.6695C0.382114 27.9255 0.238281 28.2727 0.238281 28.6348C0.238281 28.9969 0.382114 29.3441 0.638139 29.6001C0.894164 29.8562 1.24141 30 1.60348 30C1.96556 30 2.3128 29.8562 2.56883 29.6001L15.2383 16.928L27.9077 29.6001C28.1638 29.8562 28.511 30 28.8731 30C29.2352 30 29.5824 29.8562 29.8384 29.6001C30.0944 29.3441 30.2383 28.9969 30.2383 28.6348C30.2383 28.2727 30.0944 27.9255 29.8384 27.6695L17.1662 15L29.8384 2.33055Z" fill="#FF0000"/>
</svg>
