<svg width="104" height="64" viewBox="0 0 104 64" fill="none" xmlns="http://www.w3.org/2000/svg">
<path d="M94.8571 63.473C100.134 61.8109 104 56.4085 104 50C104 42.2679 98.3717 36 91.4286 36L91.2612 36.0013C90.1127 26.9548 83.2059 20 74.8571 20C72.8276 20 70.8834 20.4111 69.0859 21.1634C66.5714 9.03939 56.8058 0 45.1429 0C31.5725 0 20.5714 12.2376 20.5714 27.3333C20.5714 28.4925 20.6362 29.6351 20.7623 30.7565C18.9526 29.8408 16.9554 29.3333 14.8571 29.3333C6.65179 29.3333 0 37.0938 0 46.6667C0 55.3327 5.45145 62.5137 12.5714 63.7962V64H94.8571V63.473Z" fill="#DEEFFF"/>
<path d="M72.877 36.5868L70.3959 34.1346L66.7381 37.7457L57.691 28.8095L52.5642 31.6934C52.1393 31.9321 51.6471 32.0265 51.1628 31.962C50.6784 31.8976 50.2288 31.6779 49.8833 31.3366L49.2022 30.6659L54.9894 24.9519C55.3842 24.5594 55.8537 24.2482 56.3713 24.0364C56.8887 23.8246 57.4435 23.7163 58.0036 23.7179H64.7491V20.25H58.0042C56.9826 20.2473 55.9705 20.4448 55.0267 20.8311C54.0827 21.2173 53.2258 21.7847 52.5056 22.5003L51.9035 23.0949L51.3015 22.5003C50.5812 21.7847 49.7243 21.2173 48.7803 20.831C47.8364 20.4447 46.8243 20.2473 45.8026 20.25H39.0569V23.7187H45.8026C46.363 23.7173 46.9181 23.8256 47.4358 24.0374C47.9535 24.2493 48.4235 24.5604 48.8187 24.9527L49.4207 25.5474L46.1867 28.7397C45.6699 29.2511 45.3797 29.9441 45.3797 30.6666C45.3797 31.3891 45.6699 32.0821 46.1867 32.5935L47.3979 33.7899C48.2891 34.6667 49.4466 35.2311 50.6932 35.3967C51.9399 35.5624 53.2072 35.3202 54.3013 34.7072L57.1018 33.1336L66.6839 42.5981C67.0106 42.9206 67.1943 43.3578 67.1945 43.8139C67.1947 44.27 67.0114 44.7074 66.6849 45.0301C66.3586 45.3528 65.9157 45.5341 65.4539 45.5343C64.9922 45.5345 64.5493 45.3536 64.2226 45.0311L61.8238 42.6619L59.3388 45.1163L61.7375 47.4855L61.7474 47.4932L62.811 48.5463C63.1373 48.8682 63.3207 49.3049 63.3211 49.7601C63.3213 50.2156 63.1385 50.6525 62.8128 50.9748C62.6514 51.1343 62.4598 51.2608 62.2489 51.3474C62.0381 51.4338 61.812 51.4782 61.5838 51.4784C61.1226 51.4788 60.6803 51.2983 60.354 50.9764L55.5577 46.2378C54.933 45.6378 54.1594 45.2105 53.3147 44.9986C53.5148 44.1447 53.4919 43.2547 53.2483 42.4119C53.0049 41.5692 52.5485 40.8013 51.9224 40.1803C51.2834 39.576 50.5006 39.1377 49.6479 38.905C48.7952 38.6725 47.8972 38.6527 47.0348 38.8476C46.801 37.9503 46.3301 37.1303 45.6702 36.4716H45.6682C44.6979 35.5166 43.3838 34.9794 42.014 34.9795C40.6441 34.9797 39.3302 35.5163 38.3602 36.4716L37.0712 37.7447L33.362 34.082L30.877 36.5345L34.5912 40.2035C33.9447 40.8524 33.4837 41.659 33.2551 42.5408C33.0265 43.4228 33.0385 44.3488 33.2897 45.2247C33.541 46.1006 34.0226 46.8952 34.6856 47.5277C35.3486 48.1602 36.1693 48.608 37.0644 48.8256C36.9239 49.5732 36.952 50.3421 37.1466 51.0778C37.3412 51.8134 37.6977 52.4976 38.1905 53.0817C38.6834 53.6659 39.3005 54.1354 39.998 54.4571C40.6955 54.7788 41.4563 54.9447 42.2261 54.9429C42.3553 54.9429 42.483 54.916 42.612 54.9066C42.772 55.8444 43.1902 56.7205 43.8207 57.439C44.4513 58.1577 45.2699 58.6908 46.187 58.9804C47.104 59.27 48.084 59.3047 49.0197 59.0809C49.9553 58.8569 50.8106 58.383 51.4917 57.7109L51.9033 57.3044L52.3346 57.7303C53.0159 58.4032 53.8716 58.8782 54.808 59.1031C55.7442 59.3279 56.7251 59.2942 57.6432 59.0054C58.5615 58.7166 59.3815 58.184 60.0139 57.4657C60.646 56.7476 61.066 55.8713 61.228 54.9332C62.0245 54.9871 62.8228 54.8609 63.5623 54.5639C64.3018 54.267 64.9629 53.8074 65.4953 53.2199C66.0277 52.6324 66.4174 51.9327 66.6346 51.174C66.8519 50.4154 66.8908 49.6176 66.7487 48.8418C67.6414 48.6179 68.4585 48.1656 69.1182 47.5307C69.7776 46.896 70.2567 46.1008 70.5065 45.2253C70.7564 44.3498 70.7688 43.4248 70.542 42.5432C70.3153 41.6615 69.8577 40.8544 69.2151 40.2027L72.877 36.5868ZM37.1248 42.5981L40.8444 38.9233C41.1549 38.6172 41.5757 38.4452 42.0144 38.4452C42.4531 38.4452 42.8739 38.6172 43.1843 38.9233L43.1864 38.9243C43.3561 39.0914 43.4907 39.29 43.5825 39.5086C43.6743 39.7272 43.7215 39.9617 43.7214 40.1984C43.7212 40.4352 43.6737 40.6695 43.5817 40.8879C43.4896 41.1065 43.3547 41.305 43.1847 41.4718L41.2066 43.4252L39.5841 45.0273C39.2534 45.3409 38.8128 45.5159 38.3544 45.5159C37.8961 45.5159 37.4555 45.3409 37.1248 45.0273C36.9627 44.8682 36.834 44.6789 36.7462 44.4705C36.6584 44.262 36.6133 44.0385 36.6133 43.8127C36.6133 43.5869 36.6584 43.3634 36.7462 43.155C36.834 42.9465 36.9627 42.7572 37.1248 42.5981ZM40.9953 50.9724C40.8332 50.8132 40.7046 50.6239 40.6168 50.4156C40.529 50.2071 40.4838 49.9835 40.4838 49.7578C40.4838 49.532 40.529 49.3084 40.6168 49.1001C40.7046 48.8916 40.8332 48.7023 40.9953 48.5431L42.0672 47.4841L42.0692 47.4825L45.6702 43.9261L45.677 43.9175L46.9792 42.6312C47.1405 42.47 47.3324 42.342 47.544 42.2546C47.7555 42.167 47.9825 42.1216 48.212 42.121C48.4414 42.1204 48.6685 42.1646 48.8807 42.251C49.0926 42.3374 49.2852 42.4645 49.4474 42.6246C49.6095 42.785 49.738 42.9753 49.8253 43.1848C49.9128 43.3943 49.9573 43.6188 49.9565 43.8454C49.9557 44.0719 49.9096 44.2961 49.8207 44.5048C49.7318 44.7138 49.6021 44.9032 49.4388 45.0624L43.4549 50.9724C43.1239 51.2854 42.6833 51.4602 42.2251 51.4602C41.7669 51.4602 41.3263 51.2854 40.9953 50.9724ZM46.5474 55.2579C46.2217 54.9352 46.0388 54.4979 46.0388 54.0423C46.0388 53.5866 46.2217 53.1495 46.5474 52.8266L50.7334 48.6922C50.8869 48.5402 51.0691 48.4193 51.27 48.337C51.4707 48.2546 51.686 48.2121 51.9033 48.2121C52.1207 48.2121 52.336 48.2546 52.5369 48.337C52.7376 48.4193 52.92 48.5402 53.0733 48.6922L53.1937 48.8111C53.3474 48.9628 53.4694 49.1429 53.5527 49.3413C53.636 49.5395 53.6788 49.752 53.6788 49.9667C53.6788 50.1813 53.636 50.3938 53.5527 50.5922C53.4694 50.7904 53.3474 50.9706 53.1937 51.1222L49.0077 55.2567C48.6814 55.5788 48.2391 55.7597 47.7778 55.7599C47.3165 55.7603 46.874 55.5796 46.5474 55.2579ZM57.279 55.2753C56.9483 55.5889 56.5076 55.7639 56.0492 55.7639C55.5909 55.7639 55.1502 55.5889 54.8194 55.2753L54.3884 54.8496L55.6779 53.5759C56.0723 53.1769 56.3978 52.7168 56.6412 52.2138L57.281 52.8461C57.4427 53.0056 57.571 53.1949 57.6583 53.4034C57.7458 53.6119 57.7907 53.8355 57.7905 54.0611C57.7903 54.2868 57.745 54.5102 57.6573 54.7185C57.5696 54.9269 57.4409 55.1161 57.279 55.2753Z" fill="#628DB6"/>
</svg>
