<svg width="1275" height="412" viewBox="0 0 1275 412" fill="none" xmlns="http://www.w3.org/2000/svg">
<path d="M871.142 128.901H843.99V45.0312H872.002C880.219 45.0312 887.277 46.7103 893.174 50.0684C899.071 53.3992 903.589 58.1906 906.729 64.4426C909.896 70.6674 911.48 78.1343 911.48 86.8435C911.48 95.58 909.882 103.088 906.688 109.367C903.521 115.647 898.934 120.479 892.928 123.864C886.922 127.222 879.66 128.901 871.142 128.901ZM856.644 117.844H870.445C876.834 117.844 882.144 116.643 886.376 114.241C890.608 111.811 893.774 108.302 895.877 103.716C897.979 99.1019 899.03 93.4778 899.03 86.8435C899.03 80.2638 897.979 74.6807 895.877 70.094C893.802 65.5074 890.703 62.0264 886.581 59.6512C882.458 57.276 877.339 56.0884 871.223 56.0884H856.644V117.844Z" fill="#628DB6"/>
<path d="M812.897 45.0312H825.592V100.194C825.592 106.064 824.213 111.265 821.456 115.797C818.699 120.301 814.822 123.851 809.826 126.444C804.829 129.011 798.973 130.294 792.257 130.294C785.568 130.294 779.726 129.011 774.73 126.444C769.733 123.851 765.857 120.301 763.099 115.797C760.342 111.265 758.963 106.064 758.963 100.194V45.0312H771.617V99.1701C771.617 102.965 772.45 106.337 774.115 109.285C775.808 112.234 778.197 114.555 781.282 116.247C784.367 117.913 788.025 118.745 792.257 118.745C796.516 118.745 800.188 117.913 803.273 116.247C806.386 114.555 808.761 112.234 810.399 109.285C812.064 106.337 812.897 102.965 812.897 99.1701V45.0312Z" fill="#628DB6"/>
<path d="M743.187 86.9668C743.187 95.9217 741.549 103.621 738.272 110.064C734.996 116.48 730.505 121.421 724.799 124.889C719.12 128.329 712.664 130.049 705.429 130.049C698.167 130.049 691.682 128.329 685.976 124.889C680.298 121.421 675.82 116.466 672.544 110.023C669.268 103.58 667.63 95.8944 667.63 86.9668C667.63 78.0119 669.268 70.3265 672.544 63.9107C675.82 57.4675 680.298 52.5259 685.976 49.0859C691.682 45.6187 698.167 43.885 705.429 43.885C712.664 43.885 719.12 45.6187 724.799 49.0859C730.505 52.5259 734.996 57.4675 738.272 63.9107C741.549 70.3265 743.187 78.0119 743.187 86.9668ZM730.655 86.9668C730.655 80.1414 729.55 74.3944 727.338 69.7259C725.154 65.03 722.151 61.4808 718.329 59.0783C714.534 56.6485 710.234 55.4335 705.429 55.4335C700.596 55.4335 696.283 56.6485 692.488 59.0783C688.693 61.4808 685.69 65.03 683.478 69.7259C681.294 74.3944 680.202 80.1414 680.202 86.9668C680.202 93.7921 681.294 99.5528 683.478 104.249C685.69 108.917 688.693 112.466 692.488 114.896C696.283 117.299 700.596 118.5 705.429 118.5C710.234 118.5 714.534 117.299 718.329 114.896C722.151 112.466 725.154 108.917 727.338 104.249C729.55 99.5528 730.655 93.7921 730.655 86.9668Z" fill="#628DB6"/>
<path d="M608.505 128.901V45.0312H621.159V118.008H659.163V128.901H608.505Z" fill="#628DB6"/>
<path d="M593.363 72.3056H580.585C580.094 69.5755 579.179 67.1729 577.842 65.098C576.504 63.0231 574.866 61.2622 572.927 59.8152C570.989 58.3682 568.819 57.2761 566.416 56.539C564.041 55.8019 561.515 55.4333 558.84 55.4333C554.007 55.4333 549.68 56.6482 545.858 59.078C542.063 61.5079 539.06 65.0707 536.849 69.7666C534.664 74.4624 533.572 80.1958 533.572 86.9665C533.572 93.7919 534.664 99.5525 536.849 104.248C539.06 108.944 542.077 112.493 545.899 114.896C549.721 117.298 554.021 118.5 558.799 118.5C561.447 118.5 563.959 118.145 566.334 117.435C568.737 116.698 570.907 115.619 572.846 114.2C574.784 112.78 576.422 111.046 577.76 108.999C579.125 106.924 580.067 104.549 580.585 101.873L593.363 101.914C592.68 106.037 591.356 109.832 589.39 113.299C587.452 116.739 584.954 119.715 581.896 122.226C578.865 124.711 575.398 126.636 571.494 128.001C567.59 129.366 563.331 130.048 558.717 130.048C551.455 130.048 544.984 128.328 539.306 124.888C533.627 121.421 529.149 116.466 525.873 110.023C522.624 103.579 521 95.8941 521 86.9665C521 78.0116 522.638 70.3263 525.914 63.9104C529.19 57.4673 533.668 52.5257 539.347 49.0857C545.025 45.6184 551.482 43.8848 558.717 43.8848C563.167 43.8848 567.317 44.5264 571.166 45.8095C575.043 47.0654 578.524 48.9219 581.609 51.379C584.694 53.8089 587.247 56.7847 589.267 60.3066C591.288 63.8012 592.653 67.8009 593.363 72.3056Z" fill="#628DB6"/>
<path fill-rule="evenodd" clip-rule="evenodd" d="M640.354 149.539H580.838V269.274H602.901V224.907H625.357L649.148 269.274H673.802L647.499 221.284C648.284 220.962 649.069 220.639 649.776 220.237C656.214 217.177 661.082 212.748 664.302 207.031C667.599 201.314 669.248 194.631 669.248 186.901C669.248 179.171 667.599 172.488 664.38 166.69C661.082 160.812 656.293 156.303 649.933 153.001C647.106 151.552 643.887 150.425 640.354 149.539ZM623.159 206.79H602.901V166.529H623.08C628.655 166.529 633.13 167.334 636.664 168.945C640.118 170.555 642.709 172.81 644.437 175.95C646.086 179.01 646.949 182.633 646.949 186.901C646.949 191.169 646.086 194.792 644.437 197.771C642.788 200.67 640.197 202.925 636.664 204.455C633.13 205.985 628.655 206.79 623.159 206.79Z" fill="#A20000"/>
<path fill-rule="evenodd" clip-rule="evenodd" d="M778.779 149.539H835.94C841.829 150.747 847.168 152.679 851.957 155.337C860.673 160.168 867.347 167.093 872.058 176.111C876.769 185.13 879.046 196 879.046 208.561C879.046 221.123 876.69 231.993 872.058 241.092C867.347 250.11 860.594 257.116 851.8 261.947C843.006 266.778 832.485 269.194 820.158 269.194H778.858V149.539H778.779ZM800.764 250.271H818.902C827.303 250.271 834.369 248.741 840.023 245.682C845.754 242.622 849.994 237.952 852.821 231.751C855.726 225.551 857.139 217.821 857.139 208.561C857.139 199.301 855.726 191.571 852.899 185.452C850.073 179.332 845.833 174.742 840.258 171.682C834.684 168.623 827.695 167.012 819.451 167.012H800.764V250.271Z" fill="#A20000"/>
<path d="M683.381 149.539H762.605V166.449H705.444V198.979H758.365V217.096H705.444V250.835H762.919V269.194H683.381V149.539Z" fill="#A20000"/>
<path d="M892.315 149.539H919.325L955.443 237.227H956.857L993.053 149.539H1020.38V270.643H998.706V187.465H997.764L963.923 270.321H948.063L914.693 187.304H913.515V270.724H892.315V149.539Z" fill="#E92D38"/>
<path d="M1060.03 149.539V270.643H1037.96V149.539H1060.03Z" fill="#E92D38"/>
<path d="M1177.8 149.539V270.643H1158.02L1100.78 188.109H1099.68V270.643H1077.62V149.539H1097.4L1154.64 232.073H1155.74V149.539H1177.8Z" fill="#E92D38"/>
<path d="M1195.39 270.724V149.539H1274.62V167.898H1217.45V200.509H1270.38V218.626H1217.45V252.365H1274.93V270.724H1195.39Z" fill="#E92D38"/>
<path d="M77.4785 367.725H178.31C625.281 372.747 541.869 382.009 513.412 145.27C491.502 -37.0088 296.7 -31.9823 244.528 73.4665C123.63 24.2553 72.9635 132.72 80.99 186.448C60.9239 189.966 0.0975066 206.744 0.0976562 276.377C0.0977781 333.052 35.0822 364.538 77.4785 367.725Z" fill="url(#paint0_linear_1_2583)"/>
<path d="M211.012 401.62H594.33C634.468 400.116 651.025 368.021 648.014 323.388C645.004 278.756 604.197 259.031 582.79 255.688C585.8 152.378 483.449 142.854 438.795 166.424C352.498 59.6075 226.064 129.314 223.054 224.596C191.278 225.097 127.124 250.673 130.736 318.875C134.349 387.077 186.26 399.948 211.012 401.62Z" fill="url(#paint1_linear_1_2583)" stroke="white" stroke-width="20"/>
<path d="M279.553 362.141C280.253 351.786 286.27 322.889 287.88 322.329C288.229 322.189 293.967 323.449 300.684 325.058C307.401 326.667 316.007 328.696 319.785 329.536C323.564 330.376 326.852 331.285 327.062 331.565C327.342 331.915 327.342 333.454 326.992 336.603C326.293 342.27 325.593 359.553 325.873 362.141C326.013 363.191 326.013 364.59 325.803 365.15L325.523 366.2H279.273L279.553 362.141ZM449.648 365.15C449.508 364.59 449.508 363.191 449.578 362.141C449.858 359.553 449.158 342.27 448.458 336.603C448.108 333.454 448.038 331.915 448.388 331.565C448.598 331.285 451.887 330.376 455.665 329.536C459.443 328.696 468.05 326.667 474.767 325.058C481.484 323.449 487.291 322.189 487.571 322.329C489.11 322.889 495.127 351.786 495.897 362.141L496.177 366.2H449.928L449.648 365.15ZM310.829 314.143C301.454 310.155 293.337 306.656 292.917 306.306C292.078 305.677 292.078 305.677 292.847 303.438C295.086 297.07 304.322 276.29 305.302 275.31C305.792 274.82 308.171 275.8 322.024 282.307C330.91 286.505 338.327 290.074 338.537 290.213C338.747 290.423 338.117 292.382 337.208 294.621C334.829 300.289 332.31 308.125 330.91 314.073C329.371 320.65 329.231 321.14 328.532 321.21C328.182 321.35 320.205 318.131 310.829 314.143ZM446.079 320.3C445.869 319.74 445.659 318.971 445.659 318.691C445.659 318.411 445.03 315.542 444.19 312.394C442.581 306.166 440.202 298.96 437.963 293.852C437.193 292.033 436.703 290.423 436.913 290.283C437.123 290.073 444.54 286.505 453.426 282.377C467.35 275.87 469.659 274.89 470.149 275.38C470.848 276.08 473.997 282.867 478.475 293.362C483.233 304.627 483.513 305.467 482.743 306.166C482.113 306.726 447.549 321.35 446.849 321.35C446.639 321.42 446.289 320.93 446.079 320.3ZM329.021 271.532C321.465 266.004 315.307 261.386 315.307 261.176C315.307 260.407 320.695 253.9 324.753 249.841C330.491 244.034 340.566 236.337 342.455 236.337C343.225 236.337 364.426 260.337 364.426 261.246C364.426 261.736 363.306 262.716 361.207 263.975C356.799 266.634 351.201 271.952 347.143 277.199C345.324 279.578 343.575 281.607 343.295 281.607C343.015 281.537 336.648 277.059 329.021 271.532ZM428.307 277.199C424.249 271.882 418.652 266.564 414.243 263.905C412.144 262.646 411.025 261.666 411.025 261.176C411.025 260.267 432.156 236.267 432.995 236.267C434.884 236.267 444.96 243.964 450.697 249.771C454.755 253.9 460.143 260.407 460.143 261.106C460.143 261.526 433.275 281.117 432.365 281.327C431.946 281.537 430.686 280.278 428.307 277.199ZM373.242 257.328C372.892 257.118 370.653 252.78 368.204 247.742C365.755 242.705 362.746 236.687 361.557 234.308C360.367 231.929 359.458 229.76 359.528 229.48C359.808 228.711 370.863 225.352 375.551 224.583C380.938 223.673 394.372 223.673 399.9 224.583C404.518 225.282 415.713 228.711 415.993 229.48C416.133 229.76 415.223 231.929 413.964 234.308C412.774 236.687 409.765 242.705 407.317 247.742C404.868 252.78 402.629 257.048 402.279 257.328C401.859 257.608 400.809 257.678 398.99 257.398C397.521 257.188 392.483 257.048 387.725 257.048C383.037 257.048 378 257.188 376.46 257.398C374.711 257.678 373.592 257.608 373.242 257.328Z" fill="#E92D38"/>
<defs>
<linearGradient id="paint0_linear_1_2583" x1="201.958" y1="-38.133" x2="269.828" y2="356.492" gradientUnits="userSpaceOnUse">
<stop stop-color="white"/>
<stop offset="1" stop-color="#6BABE8"/>
</linearGradient>
<linearGradient id="paint1_linear_1_2583" x1="403.469" y1="19.5898" x2="403.119" y2="462.843" gradientUnits="userSpaceOnUse">
<stop stop-color="white"/>
<stop offset="1" stop-color="#5AA7F1"/>
</linearGradient>
</defs>
</svg>
