<svg width="408" height="201" viewBox="0 0 408 201" fill="none" xmlns="http://www.w3.org/2000/svg">
<path d="M226.198 146.781C238.781 142.938 248 130.445 248 115.625C248 97.7445 234.579 83.25 218.022 83.25L217.623 83.253C214.884 62.3329 198.414 46.25 178.505 46.25C173.666 46.25 169.03 47.2007 164.743 48.9404C158.747 20.9036 135.46 0 107.648 0C75.2884 0 49.0549 28.2995 49.0549 63.2083C49.0549 65.8889 49.2093 68.5311 49.51 71.1244C45.1946 69.0069 40.432 67.8333 35.4286 67.8333C15.862 67.8333 0 85.7793 0 107.917C0 127.957 12.9996 144.563 29.978 147.529V148H226.198V146.781Z" fill="#DEEFFF"/>
<g filter="url(#filter0_d_413_1572)">
<path d="M110.165 94.0369C98.5315 94.0369 89.0672 103.449 89.0672 115.019C89.0672 126.588 98.5315 136 110.165 136C121.798 136 131.263 126.588 131.263 115.019C131.262 103.449 121.798 94.0369 110.165 94.0369ZM110.165 129.303C102.245 129.303 95.8011 122.895 95.8011 115.019C95.8011 107.142 102.245 100.734 110.165 100.734C118.085 100.734 124.528 107.142 124.528 115.019C124.528 122.895 118.085 129.303 110.165 129.303Z" fill="white"/>
<path d="M110.165 105.65C104.97 105.65 100.744 109.853 100.744 115.019C100.744 120.184 104.97 124.387 110.165 124.387C115.359 124.387 119.585 120.185 119.585 115.019C119.585 109.853 115.359 105.65 110.165 105.65Z" fill="white"/>
<path d="M92.9405 54.7405C92.0779 53.4455 90.7622 52.5583 89.2321 52.2405C87.691 51.9206 86.117 52.2164 84.7997 53.0738L74.6642 59.671C71.9451 61.4411 71.181 65.081 72.9607 67.7852L72.9792 67.8135L92.2552 95.4252C97.0407 91.2449 103.31 88.706 110.165 88.706C112.563 88.706 114.889 89.0181 117.106 89.601L92.9405 54.7405Z" fill="white"/>
<path d="M145.335 59.5528L135.2 52.9555C132.491 51.1921 128.848 51.9398 127.061 54.6192L113.231 74.4721L128.034 95.3591L147.013 67.7063L147.039 67.6666C148.819 64.9626 148.055 61.3227 145.335 59.5528Z" fill="white"/>
</g>
<path d="M385.27 188.866L383.846 189.294V190H188.462V189.843L186.8 189.558C170.642 186.78 158 171.125 158 151.917C158 130.676 173.419 113.833 192 113.833C196.772 113.833 201.315 114.934 205.439 116.925L208.721 118.511L208.295 114.89C207.998 112.375 207.846 109.811 207.846 107.208C207.846 73.2897 233.718 46 265.385 46C292.606 46 315.532 66.1488 321.446 93.3651L321.948 95.6742L324.142 94.7977C328.268 93.1499 332.727 92.25 337.385 92.25C356.49 92.25 372.483 107.465 375.15 127.517L375.383 129.266L377.148 129.253L377.538 129.25C377.541 129.25 377.543 129.25 377.546 129.25C393.149 129.254 406 142.735 406 159.625C406 173.609 397.167 185.29 385.27 188.866Z" fill="#DEEFFF" stroke="white" stroke-width="4"/>
<g filter="url(#filter1_d_413_1572)">
<path d="M272.067 88C272 88 271.933 88 271.933 88C257 88 244.867 92.8106 244 98.1633C244 98.2311 244 98.2989 244 98.4344C244 99.7217 244.067 110.969 244.067 113.815C244.067 114.221 244.2 114.56 244.533 114.831C247.6 117.474 256.867 121.2 272 121.2C287.067 121.2 296.4 117.474 299.467 114.831C299.733 114.56 299.933 114.086 299.933 113.679C299.933 110.834 299.933 98.2989 299.933 98.1633C299.134 92.8106 287 88 272.067 88ZM272 104.939C261.533 104.939 253.067 102.432 253.067 99.1797C253.067 95.9274 261.533 93.4204 271.933 93.4204C282.4 93.4204 290.8 95.9274 290.8 99.1797C290.934 102.432 282.467 104.939 272 104.939Z" fill="white"/>
<path d="M244 159.618C244 160.837 244.067 162.125 244.667 163.209C245 163.886 245.467 164.428 246 164.97C250.933 169.782 259.6 171.204 266.067 171.746C269.933 172.085 274 172.085 277.933 171.746C284.467 171.204 293.133 169.849 298 164.97C298.533 164.428 299 163.886 299.333 163.209C299.933 162.125 300 160.837 300 159.618C300 159.21 300 154.672 300 151.894C300 150.946 299 150.268 298.133 150.674C291 153.655 281.467 155.078 272 155.078C262.533 155.078 253 153.655 245.867 150.674C245 150.335 244 150.945 244 151.894C244 154.672 244 159.211 244 159.618Z" fill="white"/>
<path d="M272 145.592C287.2 145.592 296.533 141.662 299.533 139.02C299.8 138.75 300 138.411 300 138.004C300 136.174 300 130.619 300 127.502C300 126.553 299 125.875 298.133 126.282C291 129.263 281.467 130.686 272 130.686C262.533 130.686 253.067 129.263 245.933 126.282C245.067 125.943 244.067 126.553 244.067 127.502C244.067 130.551 244.067 136.174 244.067 138.004C244.067 138.411 244.2 138.75 244.533 139.02C247.533 141.662 256.801 145.592 272 145.592Z" fill="white"/>
</g>
<defs>
<filter id="filter0_d_413_1572" x="68" y="52" width="84" height="92" filterUnits="userSpaceOnUse" color-interpolation-filters="sRGB">
<feFlood flood-opacity="0" result="BackgroundImageFix"/>
<feColorMatrix in="SourceAlpha" type="matrix" values="0 0 0 0 0 0 0 0 0 0 0 0 0 0 0 0 0 0 127 0" result="hardAlpha"/>
<feOffset dy="4"/>
<feGaussianBlur stdDeviation="2"/>
<feComposite in2="hardAlpha" operator="out"/>
<feColorMatrix type="matrix" values="0 0 0 0 0.3825 0 0 0 0 0.53087 0 0 0 0 0.675 0 0 0 1 0"/>
<feBlend mode="normal" in2="BackgroundImageFix" result="effect1_dropShadow_413_1572"/>
<feBlend mode="normal" in="SourceGraphic" in2="effect1_dropShadow_413_1572" result="shape"/>
</filter>
<filter id="filter1_d_413_1572" x="240" y="88" width="64" height="92" filterUnits="userSpaceOnUse" color-interpolation-filters="sRGB">
<feFlood flood-opacity="0" result="BackgroundImageFix"/>
<feColorMatrix in="SourceAlpha" type="matrix" values="0 0 0 0 0 0 0 0 0 0 0 0 0 0 0 0 0 0 127 0" result="hardAlpha"/>
<feOffset dy="4"/>
<feGaussianBlur stdDeviation="2"/>
<feComposite in2="hardAlpha" operator="out"/>
<feColorMatrix type="matrix" values="0 0 0 0 0.3825 0 0 0 0 0.53087 0 0 0 0 0.675 0 0 0 1 0"/>
<feBlend mode="normal" in2="BackgroundImageFix" result="effect1_dropShadow_413_1572"/>
<feBlend mode="normal" in="SourceGraphic" in2="effect1_dropShadow_413_1572" result="shape"/>
</filter>
</defs>
</svg>
