<svg width="384" height="204" viewBox="0 0 384 204" fill="none" xmlns="http://www.w3.org/2000/svg">
<rect x="1.26601" y="0.640091" width="116" height="143" rx="9" transform="matrix(0.951056 -0.309017 0.31495 0.949108 -0.139634 68.4238)" fill="white" stroke="#EAEAEA" stroke-width="2"/>
<rect width="61" height="3" transform="matrix(0.951056 -0.309017 0.31514 0.949045 24 92)" fill="#EAEAEA"/>
<rect width="39" height="3" transform="matrix(0.951056 -0.309017 0.31514 0.949045 40 141)" fill="#EAEAEA"/>
<rect width="80" height="3" transform="matrix(0.951056 -0.309017 0.31514 0.949045 27 100)" fill="#EAEAEA"/>
<rect width="51" height="3" transform="matrix(0.951056 -0.309017 0.31514 0.949045 42 150)" fill="#EAEAEA"/>
<rect width="46" height="15" rx="4" transform="matrix(0.951056 -0.309017 0.315131 0.949048 17 180)" fill="#FF7F0A"/>
<path d="M31.3497 187.868C30.811 188.043 30.3158 188.112 29.8641 188.074C29.4124 188.035 29.0223 187.894 28.6937 187.648C28.3641 187.399 28.114 187.049 27.9436 186.598L29.1788 186.196C29.2774 186.431 29.4184 186.608 29.6018 186.726C29.7842 186.842 29.994 186.905 30.2312 186.917C30.4715 186.928 30.7217 186.891 30.9817 186.807C31.2542 186.718 31.4802 186.599 31.6599 186.448C31.8397 186.297 31.9637 186.128 32.0321 185.942C32.1005 185.755 32.1018 185.563 32.0362 185.366C31.9766 185.186 31.8753 185.057 31.732 184.977C31.5878 184.893 31.4094 184.842 31.197 184.822C30.9845 184.802 30.7427 184.802 30.4714 184.821L29.6189 184.873C29.001 184.912 28.4787 184.837 28.052 184.648C27.6243 184.455 27.3278 184.109 27.1626 183.612C27.0271 183.204 27.019 182.813 27.1383 182.439C27.2565 182.062 27.4778 181.726 27.8021 181.433C28.1296 181.138 28.5348 180.912 29.0177 180.755C29.51 180.595 29.9701 180.54 30.398 180.589C30.826 180.638 31.195 180.779 31.505 181.01C31.8151 181.241 32.0394 181.55 32.178 181.936L30.966 182.33C30.8365 182.043 30.629 181.858 30.3434 181.772C30.0599 181.683 29.7309 181.699 29.3563 181.821C29.0962 181.906 28.8846 182.017 28.7214 182.156C28.5613 182.293 28.4543 182.446 28.4004 182.614C28.3465 182.782 28.3483 182.953 28.4057 183.126C28.4694 183.317 28.579 183.456 28.7346 183.543C28.8922 183.625 29.0732 183.674 29.2774 183.69C29.4847 183.705 29.6909 183.706 29.8962 183.694L30.5956 183.647C30.8762 183.624 31.1546 183.626 31.431 183.652C31.7063 183.676 31.9662 183.735 32.2104 183.83C32.4568 183.921 32.6726 184.06 32.858 184.246C33.0464 184.431 33.1904 184.674 33.29 184.974C33.4234 185.375 33.4377 185.764 33.3329 186.14C33.2271 186.514 33.0078 186.85 32.6752 187.15C32.3426 187.45 31.9008 187.689 31.3497 187.868ZM32.4381 180.907L32.0902 179.86L37.6071 178.067L37.955 179.114L35.8188 179.809L37.7646 185.666L36.5247 186.069L34.5789 180.211L32.4381 180.907ZM40.6577 184.726L39.3156 185.162L39.4646 177.464L41.0064 176.963L45.738 183.075L44.4006 183.509L40.7298 178.624L40.674 178.642L40.6577 184.726ZM39.8051 182.004L43.4505 180.82L43.783 181.821L40.1376 183.005L39.8051 182.004ZM46.2953 182.894L44.0016 175.989L46.5975 175.146C47.13 174.973 47.6066 174.921 48.0273 174.989C48.4511 175.057 48.8113 175.228 49.1079 175.501C49.4035 175.771 49.6241 176.126 49.7698 176.564C49.9166 177.006 49.9494 177.42 49.8683 177.805C49.7903 178.19 49.5979 178.53 49.2911 178.825C48.9843 179.119 48.5646 179.353 48.0321 179.526L46.1885 180.125L45.8452 179.092L47.517 178.549C47.8297 178.447 48.0708 178.321 48.2402 178.17C48.4127 178.018 48.5176 177.844 48.5551 177.647C48.5946 177.446 48.5738 177.223 48.4928 176.979C48.4117 176.735 48.2944 176.542 48.141 176.4C47.9865 176.255 47.7954 176.17 47.5675 176.145C47.3385 176.117 47.0662 176.154 46.7504 176.257L45.6034 176.629L47.5491 182.486L46.2953 182.894ZM50.1822 181.631L47.4651 179.043L48.8304 178.6L51.5846 181.175L50.1822 181.631ZM49.8803 175.24L49.5324 174.192L55.0493 172.4L55.3972 173.447L53.261 174.141L55.2068 179.998L53.9669 180.401L52.0211 174.544L49.8803 175.24Z" fill="white"/>
<rect x="-1.2702" y="0.657086" width="116" height="138" rx="9" transform="matrix(-0.956305 -0.292372 -0.313895 0.949458 378.721 34.6618)" fill="white" stroke="#EAEAEA" stroke-width="2"/>
<rect width="61.9385" height="2.47875" transform="matrix(-0.95396 -0.299932 -0.321401 0.946943 357.617 57.6465)" fill="#EAEAEA"/>
<rect width="39" height="3" transform="matrix(-0.956305 -0.292372 -0.314763 0.94917 341 105)" fill="#EAEAEA"/>
<rect width="80" height="3" transform="matrix(-0.956305 -0.292372 -0.313895 0.949458 354 67)" fill="#EAEAEA"/>
<rect width="51" height="3" transform="matrix(-0.956305 -0.292372 -0.313895 0.949458 339 114)" fill="#EAEAEA"/>
<rect width="46" height="15" rx="4" transform="matrix(-0.956305 -0.292372 -0.313887 0.94946 364 145)" fill="#FF7F0A"/>
<path d="M336.084 140.115L333.724 146.997L332.601 146.632L330.952 140.886L330.892 140.866L329.285 145.555L328.031 145.147L330.39 138.265L331.514 138.63L333.162 144.376L333.223 144.396L334.83 139.707L336.084 140.115ZM337.705 148.393C337.101 148.197 336.606 147.88 336.219 147.443C335.835 147.007 335.594 146.48 335.496 145.863C335.401 145.247 335.48 144.57 335.734 143.831C335.988 143.088 336.343 142.499 336.799 142.062C337.259 141.623 337.778 141.341 338.353 141.217C338.932 141.093 339.524 141.13 340.128 141.326C340.734 141.523 341.228 141.839 341.609 142.274C341.989 142.71 342.228 143.237 342.325 143.857C342.424 144.474 342.345 145.154 342.091 145.896C341.838 146.635 341.482 147.223 341.022 147.659C340.563 148.095 340.047 148.376 339.474 148.501C338.902 148.626 338.312 148.59 337.705 148.393ZM338.088 147.275C338.463 147.397 338.826 147.412 339.177 147.321C339.528 147.23 339.847 147.032 340.134 146.728C340.421 146.421 340.654 146.008 340.833 145.487C341.012 144.964 341.081 144.495 341.041 144.082C341 143.668 340.868 143.322 340.643 143.044C340.419 142.766 340.119 142.566 339.744 142.444C339.37 142.322 339.005 142.306 338.651 142.397C338.3 142.488 337.98 142.687 337.693 142.994C337.405 143.301 337.172 143.716 336.992 144.239C336.814 144.76 336.745 145.227 336.785 145.64C336.827 146.051 336.96 146.395 337.185 146.674C337.412 146.953 337.714 147.154 338.088 147.275ZM343.031 150.021L343.439 142.505L344.786 142.942L344.302 148.406L344.362 148.426L347.428 143.801L348.659 144.201L348.247 149.693L348.317 149.716L351.292 145.056L352.648 145.497L348.334 151.744L347.094 151.341L347.363 146.069L347.307 146.051L344.275 150.425L343.031 150.021Z" fill="white"/>
<path d="M277.714 142.979C288.268 139.759 296 129.292 296 116.875C296 101.894 284.743 89.75 270.857 89.75L270.522 89.7525C268.225 72.2248 254.412 58.75 237.714 58.75C233.655 58.75 229.767 59.5466 226.172 61.0041C221.143 37.5138 201.612 20 178.286 20C151.145 20 129.143 43.7104 129.143 72.9583C129.143 75.2042 129.272 77.418 129.525 79.5907C125.905 77.8166 121.911 76.8333 117.714 76.8333C101.304 76.8333 88 91.8691 88 110.417C88 127.207 98.9029 141.12 113.143 143.605V144H277.714V142.979Z" fill="#DEEFFF"/>
<g filter="url(#filter0_d_413_1543)">
<path d="M200.375 104.239C201.392 103.299 201.937 101.517 201.616 100.183L200.761 96.6272L200.743 96.5632C200.727 96.5131 200.726 96.4846 200.725 96.4828C200.74 96.447 200.831 96.3634 200.885 96.3135C200.926 96.276 200.946 96.2572 200.978 96.2245C212.399 84.8115 220.574 68.5739 214.568 62.5685L214.539 62.5387C211.766 59.7655 206.326 59.7254 199.247 62.4039C192.879 64.8133 185.648 69.2326 179.392 74.5429C179.186 74.718 179.028 74.8235 178.677 74.7479L174.845 73.7795C173.459 73.4305 171.577 73.892 170.561 74.8316L156.315 88.0004C155.285 88.953 155.454 90.0245 156.047 90.617C156.371 90.9416 156.824 91.1564 157.392 91.2553L167.612 93.0387C167.853 93.0809 168.108 93.0998 168.368 93.0983L161.463 108.524C160.749 110.119 161.276 110.99 161.654 111.368C162.031 111.745 162.917 112.287 164.616 111.682L181.183 105.772C181.176 106.009 181.187 106.242 181.222 106.464L182.763 116.269C182.847 116.805 183.057 117.232 183.376 117.552L183.377 117.552C183.694 117.87 184.109 118.057 184.556 118.069C184.936 118.08 185.516 117.976 186.132 117.406L200.375 104.239ZM196.793 70.7523C199.34 68.4303 203.428 68.5564 205.906 71.0335C208.383 73.5105 208.325 77.415 205.777 79.737C203.23 82.059 199.142 81.9329 196.665 79.4558C194.188 76.9788 194.245 73.0743 196.793 70.7523Z" fill="white"/>
</g>
<path d="M161 101C155.339 108.82 142.013 122.498 134 114.65" stroke="white" stroke-width="2" stroke-dasharray="4 4"/>
<path d="M173.167 116.007C164.104 119.246 147.345 128.08 152.805 137.506" stroke="white" stroke-width="2" stroke-dasharray="4 4"/>
<path d="M155 117L132 134" stroke="white" stroke-width="2" stroke-dasharray="4 4"/>
<defs>
<filter id="filter0_d_413_1543" x="151.572" y="60.4258" width="69.0231" height="65.6445" filterUnits="userSpaceOnUse" color-interpolation-filters="sRGB">
<feFlood flood-opacity="0" result="BackgroundImageFix"/>
<feColorMatrix in="SourceAlpha" type="matrix" values="0 0 0 0 0 0 0 0 0 0 0 0 0 0 0 0 0 0 127 0" result="hardAlpha"/>
<feOffset dy="4"/>
<feGaussianBlur stdDeviation="2"/>
<feComposite in2="hardAlpha" operator="out"/>
<feColorMatrix type="matrix" values="0 0 0 0 0.3825 0 0 0 0 0.53087 0 0 0 0 0.675 0 0 0 1 0"/>
<feBlend mode="normal" in2="BackgroundImageFix" result="effect1_dropShadow_413_1543"/>
<feBlend mode="normal" in="SourceGraphic" in2="effect1_dropShadow_413_1543" result="shape"/>
</filter>
</defs>
</svg>
